<svg xmlns="http://www.w3.org/2000/svg" viewBox="0 0 40 40" fill="none">
  <!-- Shield background -->
  <path d="M20 3L5 9v10c0 9.4 6.4 18.2 15 20.5C29.6 37.2 35 28.4 35 19V9L20 3z" fill="#1E3A8A"/>
  <!-- Shield inner -->
  <path d="M20 7L8 12v7c0 7.5 5.1 14.5 12 17 6.9-2.5 12-9.5 12-17v-7L20 7z" fill="#1E40AF"/>
  <!-- Wrench in gold -->
  <path d="M26.5 13.5c-2.3 0-4.2 1.5-4.8 3.6l-2.2 2.2-1.8-1.8-1.4 1.4 1.8 1.8-3.6 3.6c-.6.6-.6 1.6 0 2.2l1 1c.6.6 1.6.6 2.2 0l3.6-3.6 1.8 1.8 1.4-1.4-1.8-1.8 2.2-2.2c.7.2 1.4.2 2.2.2 2.2 0 4-1.8 4-4 0-.4-.1-.9-.2-1.3l-2.5 2.5-1.5-1.5 2.5-2.5c-.4-.2-1.1-.4-1.9-.2z" fill="#F59E0B"/>
</svg>
